<mxfile host="app.diagrams.net" modified="2024-05-02T14:17:38.621Z" agent="Mozilla/5.0 (Windows NT 10.0; Win64; x64) AppleWebKit/537.36 (KHTML, like Gecko) Chrome/124.0.0.0 Safari/537.36" etag="IZYg--D1x3Oo02DcS5Ci" version="24.3.1" type="github">
  <diagram name="Trang-1" id="buFCcKLnYuNYUrimXxQx">
    <mxGraphModel dx="880" dy="434" grid="1" gridSize="10" guides="1" tooltips="1" connect="1" arrows="1" fold="1" page="1" pageScale="1" pageWidth="827" pageHeight="1169" math="0" shadow="0">
      <root>
        <mxCell id="0" />
        <mxCell id="1" parent="0" />
        <mxCell id="UofX3LDi2gTnuSqfsSJC-1" value="Nhập vào một số nguyên n. In ra kết quả bình phương của n" style="whiteSpace=wrap;html=1;" vertex="1" parent="1">
          <mxGeometry x="240" y="40" width="390" height="60" as="geometry" />
        </mxCell>
        <mxCell id="UofX3LDi2gTnuSqfsSJC-2" value="Start" style="rounded=1;whiteSpace=wrap;html=1;" vertex="1" parent="1">
          <mxGeometry x="369" y="130" width="90" height="30" as="geometry" />
        </mxCell>
        <mxCell id="UofX3LDi2gTnuSqfsSJC-3" value="" style="shape=flexArrow;endArrow=classic;html=1;rounded=0;exitX=0.5;exitY=1;exitDx=0;exitDy=0;" edge="1" parent="1" source="UofX3LDi2gTnuSqfsSJC-2">
          <mxGeometry width="50" height="50" relative="1" as="geometry">
            <mxPoint x="450" y="320" as="sourcePoint" />
            <mxPoint x="414" y="200" as="targetPoint" />
          </mxGeometry>
        </mxCell>
        <mxCell id="UofX3LDi2gTnuSqfsSJC-4" value="Nhập số nguyên n" style="shape=parallelogram;perimeter=parallelogramPerimeter;whiteSpace=wrap;html=1;fixedSize=1;" vertex="1" parent="1">
          <mxGeometry x="346" y="200" width="136" height="40" as="geometry" />
        </mxCell>
        <mxCell id="UofX3LDi2gTnuSqfsSJC-6" value="" style="shape=flexArrow;endArrow=classic;html=1;rounded=0;exitX=0.5;exitY=1;exitDx=0;exitDy=0;" edge="1" parent="1">
          <mxGeometry width="50" height="50" relative="1" as="geometry">
            <mxPoint x="414" y="240" as="sourcePoint" />
            <mxPoint x="414" y="280" as="targetPoint" />
          </mxGeometry>
        </mxCell>
        <mxCell id="UofX3LDi2gTnuSqfsSJC-7" value="n^2 = n*n" style="rounded=0;whiteSpace=wrap;html=1;" vertex="1" parent="1">
          <mxGeometry x="354" y="280" width="120" height="60" as="geometry" />
        </mxCell>
        <mxCell id="UofX3LDi2gTnuSqfsSJC-8" value="Hiển thị n^2" style="shape=parallelogram;perimeter=parallelogramPerimeter;whiteSpace=wrap;html=1;fixedSize=1;" vertex="1" parent="1">
          <mxGeometry x="321" y="380" width="186" height="50" as="geometry" />
        </mxCell>
        <mxCell id="UofX3LDi2gTnuSqfsSJC-11" value="Stop" style="rounded=1;whiteSpace=wrap;html=1;" vertex="1" parent="1">
          <mxGeometry x="369" y="470" width="90" height="30" as="geometry" />
        </mxCell>
        <mxCell id="UofX3LDi2gTnuSqfsSJC-13" value="" style="shape=flexArrow;endArrow=classic;html=1;rounded=0;exitX=0.5;exitY=1;exitDx=0;exitDy=0;" edge="1" parent="1">
          <mxGeometry width="50" height="50" relative="1" as="geometry">
            <mxPoint x="414" y="340" as="sourcePoint" />
            <mxPoint x="414" y="380" as="targetPoint" />
          </mxGeometry>
        </mxCell>
        <mxCell id="UofX3LDi2gTnuSqfsSJC-14" value="" style="shape=flexArrow;endArrow=classic;html=1;rounded=0;exitX=0.5;exitY=1;exitDx=0;exitDy=0;" edge="1" parent="1">
          <mxGeometry width="50" height="50" relative="1" as="geometry">
            <mxPoint x="414" y="430" as="sourcePoint" />
            <mxPoint x="414" y="470" as="targetPoint" />
          </mxGeometry>
        </mxCell>
        <mxCell id="UofX3LDi2gTnuSqfsSJC-16" value="Nhập vào chiều dài, chiều rộng của hình chữ nhật. In ra chu vi, diện tích" style="whiteSpace=wrap;html=1;" vertex="1" parent="1">
          <mxGeometry x="230" y="570" width="390" height="60" as="geometry" />
        </mxCell>
        <mxCell id="UofX3LDi2gTnuSqfsSJC-17" value="Start" style="ellipse;whiteSpace=wrap;html=1;" vertex="1" parent="1">
          <mxGeometry x="347" y="640" width="104" height="40" as="geometry" />
        </mxCell>
        <mxCell id="UofX3LDi2gTnuSqfsSJC-21" value="" style="endArrow=classic;html=1;rounded=0;exitX=0.5;exitY=1;exitDx=0;exitDy=0;" edge="1" parent="1" source="UofX3LDi2gTnuSqfsSJC-17">
          <mxGeometry width="50" height="50" relative="1" as="geometry">
            <mxPoint x="360" y="800" as="sourcePoint" />
            <mxPoint x="400" y="720" as="targetPoint" />
          </mxGeometry>
        </mxCell>
        <mxCell id="UofX3LDi2gTnuSqfsSJC-22" value="Nhập 2 cạnh hình chữ nhật a,b" style="shape=parallelogram;perimeter=parallelogramPerimeter;whiteSpace=wrap;html=1;fixedSize=1;" vertex="1" parent="1">
          <mxGeometry x="294.5" y="720" width="209" height="40" as="geometry" />
        </mxCell>
        <mxCell id="UofX3LDi2gTnuSqfsSJC-23" style="edgeStyle=orthogonalEdgeStyle;rounded=0;orthogonalLoop=1;jettySize=auto;html=1;exitX=0.5;exitY=1;exitDx=0;exitDy=0;" edge="1" parent="1" source="UofX3LDi2gTnuSqfsSJC-22" target="UofX3LDi2gTnuSqfsSJC-22">
          <mxGeometry relative="1" as="geometry" />
        </mxCell>
        <mxCell id="UofX3LDi2gTnuSqfsSJC-24" value="" style="endArrow=classic;html=1;rounded=0;exitX=0.5;exitY=1;exitDx=0;exitDy=0;" edge="1" parent="1">
          <mxGeometry width="50" height="50" relative="1" as="geometry">
            <mxPoint x="399" y="760" as="sourcePoint" />
            <mxPoint x="400" y="800" as="targetPoint" />
          </mxGeometry>
        </mxCell>
        <mxCell id="UofX3LDi2gTnuSqfsSJC-25" value="Chu vi P = (a+b)*2&lt;div&gt;Diện tích S= a*b&lt;/div&gt;" style="rounded=0;whiteSpace=wrap;html=1;" vertex="1" parent="1">
          <mxGeometry x="290" y="800" width="210" height="60" as="geometry" />
        </mxCell>
        <mxCell id="UofX3LDi2gTnuSqfsSJC-26" value="Print P&lt;div&gt;Print S&lt;/div&gt;" style="shape=parallelogram;perimeter=parallelogramPerimeter;whiteSpace=wrap;html=1;fixedSize=1;" vertex="1" parent="1">
          <mxGeometry x="294.5" y="900" width="209" height="40" as="geometry" />
        </mxCell>
        <mxCell id="UofX3LDi2gTnuSqfsSJC-27" value="" style="endArrow=classic;html=1;rounded=0;exitX=0.5;exitY=1;exitDx=0;exitDy=0;" edge="1" parent="1">
          <mxGeometry width="50" height="50" relative="1" as="geometry">
            <mxPoint x="399" y="860" as="sourcePoint" />
            <mxPoint x="400" y="900" as="targetPoint" />
          </mxGeometry>
        </mxCell>
        <mxCell id="UofX3LDi2gTnuSqfsSJC-28" value="Stop" style="ellipse;whiteSpace=wrap;html=1;" vertex="1" parent="1">
          <mxGeometry x="347" y="980" width="104" height="40" as="geometry" />
        </mxCell>
        <mxCell id="UofX3LDi2gTnuSqfsSJC-29" value="" style="endArrow=classic;html=1;rounded=0;exitX=0.5;exitY=1;exitDx=0;exitDy=0;" edge="1" parent="1">
          <mxGeometry width="50" height="50" relative="1" as="geometry">
            <mxPoint x="399" y="940" as="sourcePoint" />
            <mxPoint x="400" y="980" as="targetPoint" />
          </mxGeometry>
        </mxCell>
      </root>
    </mxGraphModel>
  </diagram>
</mxfile>
